# xmcd
#
# Track frame offsets:
#	150
#	15776
#	34514
#	52460
#	71446
#	79957
#	95124
#	112951
#	127018
#	136103
#	151587
#	170981
#	183168
#	202063
#
# Disc length: 2973 seconds
# Revision: 0
# Processed by: cddbd v1.5.2PL0 Copyright (c) Steve Scherf et al.
# Submitted via: dBpowerAMP V12.0
#
DISCID=bc0b9b0e
DTITLE=The Steel Wheels - Leave Some Things Behind
DYEAR=2015
DGENRE=Americana
TTITLE0=We've Got A Fire
TTITLE1=So Lonely
TTITLE2=Heaven Don't Come By Here
TTITLE3=End Of The World Again
TTITLE4=Milo
TTITLE5=Help Me
TTITLE6=Old Guitar
TTITLE7=Promised Land
TTITLE8=Mountains Quake
TTITLE9=Find Your Mountain
TTITLE10=Winter Is Coming
TTITLE11=Worn Wool, Soft Leather
TTITLE12=Rescue Me, Virginia
TTITLE13=Every Song Is A Love Song
EXTD=
EXTT0=
EXTT1=
EXTT2=
EXTT3=
EXTT4=
EXTT5=
EXTT6=
EXTT7=
EXTT8=
EXTT9=
EXTT10=
EXTT11=
EXTT12=
EXTT13=
PLAYORDER=
